PathFileType	4	(X/Y/Z)	D:\TRACE\v60_Jaco2_6-2-23\JustBodyDRS_Motion2_3-platform.trc
DataRate	CameraRate	NumFrames	NumMarkers	Units	OrigDataRate	OrigDataStartFrame	OrigNumFrames
100.00	100.00	      36	5	mm	100.00	855	      6834
Frame#	Time	Left_Front			Right_Front			Left_Aft			Right_Aft			Post			
		X1	Y1	Z1	X2	Y2	Z2	X3	Y3	Z3	X4	Y4	Z4	X5	Y5	Z5	

855	8.540	-771.06995	69.02797	-621.92181	799.06824	70.10274	-626.78821	-679.36652	-34.82697	508.73184	762.89905	-38.11802	517.77759	15.87193	1391.70337	-823.64722	
856	8.550	-771.84259	68.55138	-621.82159	797.99274	69.43835	-627.00079	-679.99780	-34.62421	508.61548	761.67023	-39.64256	515.64502	14.84028	1391.20422	-825.61145	
857	8.560	-773.06586	67.96291	-621.71960	797.03601	68.94109	-627.10303	-680.97583	-34.12074	508.67081	759.71582	-37.86540	517.35425	13.72129	1390.52600	-827.48730	
858	8.570	-773.90668	67.72210	-622.36298	796.41339	68.46136	-627.27521	-681.91547	-33.82030	508.47681	759.47131	-37.10978	517.66791	13.07855	1389.71753	-829.25061	
859	8.580	-774.76868	67.00523	-622.45532	795.41406	67.74911	-627.46497	-682.74982	-33.44172	508.22476	758.14581	-36.75620	517.61987	12.55172	1389.24121	-830.69781	
860	8.590	-775.53668	66.58302	-622.64679	794.25116	67.10331	-627.83472	-683.77380	-32.92457	508.03531	757.14404	-36.10464	517.56079	11.52771	1388.34631	-832.07269	
861	8.600	-776.52850	65.97688	-622.79993	793.51208	66.76178	-627.97327	-684.74225	-32.57631	507.93906	756.47070	-35.66348	517.50690	10.19253	1387.62219	-833.35254	
862	8.610	-777.88586	65.22200	-622.91406	792.64758	66.15874	-628.00427	-685.59119	-31.98738	507.98288	755.77808	-34.83584	517.55389	9.35623	1386.47412	-834.46930	
863	8.620	-778.59723	64.56557	-623.42712	791.38654	65.38052	-628.36121	-686.43744	-31.43561	507.86047	755.58130	-34.02520	516.83258	8.50727	1385.71777	-835.63324	
864	8.630	-779.49738	63.83631	-623.23035	790.44751	64.74991	-628.53748	-687.69989	-31.09002	507.76035	753.29163	-33.72034	517.24500	7.16689	1384.57617	-836.80060	
865	8.640	-780.29095	63.35442	-623.81769	789.63300	63.81258	-628.80304	-688.47021	-30.48146	507.76273	752.96472	-33.01007	517.01544	6.44509	1383.66895	-838.18927	
866	8.650	-781.81171	62.91634	-624.08282	788.54492	63.23547	-629.06403	-689.49341	-29.96286	507.56027	752.43695	-32.36445	516.87982	5.02510	1382.67590	-839.71704	
867	8.660	-782.59100	61.99571	-624.36066	787.27924	62.16736	-629.39630	-690.80231	-29.34797	507.35297	751.39014	-31.68666	516.63153	4.17858	1381.61267	-841.70648	
868	8.670	-783.42889	60.38309	-624.36072	786.64014	61.31693	-629.43713	-691.76263	-28.84293	507.16919	750.56000	-31.01828	516.51825	2.99284	1380.54602	-844.31586	
869	8.680	-784.59161	59.42893	-624.71564	785.66028	60.25880	-629.85999	-692.67108	-28.28126	507.15924	749.39307	-30.22485	516.38171	2.00470	1379.43469	-846.70868	
870	8.690	-785.80621	59.21041	-625.16681	784.51318	59.70379	-630.06317	-693.76862	-27.67952	506.82925	748.38049	-29.73891	516.36676	0.96895	1378.23120	-848.91852	
871	8.700	-786.78632	58.35872	-625.35443	783.41486	58.52391	-630.38708	-694.69556	-26.88456	506.51318	747.47144	-29.15728	516.18256	0.01951	1376.98962	-851.65851	
872	8.710	-787.47455	57.37016	-625.56396	782.30560	58.01818	-630.69073	-695.66418	-26.31000	506.79224	745.62427	-28.79892	515.60284	-0.95925	1375.85364	-854.02173	
873	8.720	-788.89282	56.08463	-626.01489	781.27850	56.86153	-631.06897	-697.01190	-25.45708	506.41492	744.21661	-28.57890	515.04669	-2.09733	1374.56567	-856.27765	
874	8.730	-790.31921	55.14346	-626.23206	780.26483	55.86558	-631.19055	-698.08716	-24.57222	506.10117	743.75378	-27.22936	515.29590	-3.42203	1373.24023	-858.75659	
875	8.740	-791.03784	54.13305	-626.53302	779.11877	54.80357	-631.56519	-699.15594	-24.03241	505.98767	742.92664	-26.47811	515.02295	-4.45721	1371.80945	-860.67505	
876	8.750	-792.06970	53.10354	-626.75214	777.96008	53.86135	-631.85461	-700.39386	-23.20080	505.75128	741.78949	-25.63089	514.89581	-5.47888	1370.28906	-862.61462	
877	8.760	-793.20502	52.15516	-627.11847	776.91498	52.66606	-632.29681	-701.50958	-22.54444	505.49185	740.79791	-24.68245	514.70874	-6.30488	1368.95508	-864.61688	
878	8.770	-794.52008	51.18384	-627.38257	775.90393	51.74804	-632.63568	-702.44666	-21.58564	505.26376	739.94000	-23.70488	514.48859	-7.74886	1367.47913	-866.65344	
879	8.780	-795.52594	49.94768	-627.62964	774.63373	50.61983	-632.78088	-703.51227	-20.91870	505.12637	738.11200	-23.03678	514.27423	-9.33998	1365.97241	-868.86969	
880	8.790	-796.64703	48.51442	-628.12305	773.48743	49.60277	-633.22284	-704.51337	-20.41006	504.86594	737.47644	-22.25897	514.07117	-10.16044	1364.55334	-871.50159	
881	8.800	-797.54333	47.56722	-628.52673	772.71100	48.39688	-633.53357	-705.57062	-19.49009	504.75522	736.06647	-21.67970	513.74359	-10.86094	1362.91711	-874.51263	
882	8.810	-798.93555	46.69290	-628.85553	771.32776	47.21780	-633.79193	-706.56305	-18.82742	504.52768	735.40753	-20.64831	513.52435	-12.14060	1361.54175	-877.52039	
883	8.820	-800.13599	45.53567	-629.04840	770.12384	46.13670	-634.14331	-708.28357	-17.35369	504.24414	733.89093	-19.78127	513.27734	-13.02335	1359.83142	-880.73804	
884	8.830	-800.90118	44.15065	-629.39960	769.10168	44.98772	-634.39783	-709.21326	-16.83554	504.08514	732.77911	-18.78160	513.15387	-14.56700	1358.25769	-883.85706	
885	8.840	-802.07709	43.09876	-629.97797	767.80969	43.60198	-634.91583	-710.83502	-15.34522	504.12527	731.75586	-18.00694	513.01074	-15.55271	1356.66333	-886.88397	
886	8.850	-803.43384	41.88326	-630.09143	766.89917	42.49565	-635.22363	-711.72052	-14.81958	503.79388	730.80591	-17.00591	512.71320	-16.43082	1354.75610	-889.36273	
887	8.860	-804.71155	40.33880	-630.43866	765.64374	41.29307	-635.60919	-712.67096	-14.10455	503.39786	729.80920	-15.97978	512.52112	-17.32979	1353.10730	-891.79401	
888	8.870	-805.65698	39.30119	-630.98987	764.54865	39.88403	-635.92426	-713.54419	-13.56470	503.34012	728.41949	-15.11166	512.12366	-18.84394	1351.55164	-894.44452	
889	8.880	-806.54510	38.03943	-631.31555	763.52661	38.71507	-636.24988	-715.01434	-12.28456	502.96442	727.34491	-13.98498	512.02094	-20.45044	1349.65723	-896.74060	
890	8.890	-807.96802	36.53936	-631.46497	762.18134	37.47293	-636.74622	-715.98706	-11.60785	502.58182	725.49377	-13.34700	511.72281	-21.44929	1347.97058	-899.16760	
